<svg xmlns="http://www.w3.org/2000/svg" viewBox="0 0 154.68 82.38"><defs><style>.cls-1{fill:none;stroke:#1d1d1b;stroke-width:0.25px;opacity:0.5;}.cls-1,.cls-2{stroke-miterlimit:10;}.cls-2{font-size:23.71px;stroke:#000;stroke-width:0.5px;font-family:BradleyHandITC, Bradley Hand ITC;opacity:0.8;}.cls-3{letter-spacing:1.13em;}.cls-4,.cls-5{font-size:18px;}.cls-5{font-family:Ephesis-Regular, Ephesis;}</style></defs><g id="Laag_2" data-name="Laag 2"><g id="Laag_1-2" data-name="Laag 1"><path class="cls-1" d="M142,30.06A41,41,0,0,0,106,.29c-22.72-2-42.82,14.51-44.9,36.89S75.69,79.33,98.4,81.34a41.42,41.42,0,0,0,43.22-28.5"/><path class="cls-1" d="M135.08,30.82A41.07,41.07,0,0,0,99,1C76.26-1,56.16,15.55,54.08,37.93S68.72,80.09,91.44,82.09a41.4,41.4,0,0,0,43.21-28.5"/><text class="cls-2" transform="translate(0.25 47.63) scale(1.02 1)"><tspan class="cls-3" xml:space="preserve">			</tspan><tspan x="98.47" y="0" xml:space="preserve">  </tspan><tspan class="cls-4" x="110.55" y="0" xml:space="preserve">  </tspan></text><text class="cls-5" transform="translate(122.64 47.63) scale(1.13 1)">J P</text></g></g></svg>