<svg xmlns="http://www.w3.org/2000/svg" viewBox="0 0 176.31 87.32"><defs><style>.cls-1,.cls-2{fill:none;stroke-miterlimit:10;stroke-width:0.25px;opacity:0.5;}.cls-1{stroke:#1d1d1b;}.cls-2{stroke:#000;stroke-linecap:round;}.cls-3{font-size:19px;font-family:Ephesis-Regular, Ephesis;}</style></defs><g id="Laag_2" data-name="Laag 2"><g id="Laag_1-2" data-name="Laag 1"><path class="cls-1" d="M93.37,32.25A44.15,44.15,0,0,0,54.72.31C30.44-1.89,9,15.73,6.83,39.67S22.58,84.81,46.86,87A44,44,0,0,0,93,56.62"/><path class="cls-2" d="M86.13,59.61c-6.62,15.77-22.65,26.9-41.38,26.9C20.1,86.51.12,67.24.12,43.48s20-43,44.63-43c20.52,0,37.81,13.37,43,31.57"/><path class="cls-2" d="M87.42,56.08c-.38,1.2-.81,2.37-1.29,3.53"/><text class="cls-3" transform="translate(36.77 49.01) scale(1.13 1)">Jennita Photography</text></g></g></svg>